<svg id="e5Vf38TwiLa1" xmlns="http://www.w3.org/2000/svg" xmlns:xlink="http://www.w3.org/1999/xlink" viewBox="0 0 300 300" shape-rendering="geometricPrecision" text-rendering="geometricPrecision"><path d="M95.36851,108.40264c15.28585,2.54764,30.59517,4.31688,45.59793,8.60338c3.08293.88084,9.46372-1.48561,9.46372,1.72068c0,3.92172-37.59255,4.30169-38.71523,4.30169-8.89016,0-17.78033,0-26.67049,0-3.15457,0-9.46372,3.15457-9.46372,0c0-1.46229,2.88968-.48018,4.30169-.86034c6.048-1.62831,11.91745-3.97403,18.06711-5.16203c19.11799-3.69325,38.44549-6.20706,57.64267-9.46372c12.92279-2.19226,25.73552-5.05744,38.71523-6.88271c7.08263-.99599,16.49134-.86034,24.08948-.86034c1.72068,0,5.57936-1.6693,5.16203,0-.56076,2.24306-3.87565,2.58267-6.02237,3.44135-13.37968,5.35187-32.4651,16.34643-47.31861,16.34643-1.46229,0,4.65635.55829,4.30169-.86034-.46658-1.86634-3.28096-2.17793-5.16203-2.58101-4.46242-.95623-18.54541,1.24238-21.50846-1.72068-1.034-1.034,5.72033-.50568,4.30169-.86034-4.76231-1.19058-9.84259-.61687-14.62575-1.72068-1.42485-.32881-5.68895-.39792-4.30169-.86034c9.27501-3.09167,24.5196-2.37174,34.41354-3.44135c6.01457-.65022,12.05191-1.07619,18.06711-1.72068c3.46897-.37168,13.81288-1.72068,10.32406-1.72068-2.8821,0-5.7605.38652-8.60338.86034-10.73197,1.78866-21.43519,3.76351-31.83252,6.88271-1.40062.42019-4.30169-.60196-4.30169.86034c0,4.30169,8.62473.42803,12.90508,0c1.45504-.1455,5.73559-.57356,4.30169-.86034-10.06477-2.01295-19.80043,2.12067-29.25151,4.30169-5.69939,1.31524-11.53223,2.02272-17.20677,3.44135-1.41863.35466-5.57132,1.58584-4.30169.86034c20.90208-11.94405,49.34356-13.40442,72.26843-18.06711c6.06651-1.23387,11.98918-3.12532,18.06711-4.30169c2.82959-.54766,5.74354-.50286,8.60338-.86034c1.73094-.21637,6.90042-.71547,5.16203-.86034-27.66359-2.3053-55.34565,2.41617-82.59249,6.02237-12.51519,1.65642-24.77182,2.3414-36.99455,5.16203-1.42485.32881-5.51839.0492-4.30169.86034c5.26705,3.51137,11.29571-1.57087,16.34643-2.58101c2.93592-.58718,11.40681-1.52973,8.60338-2.58102-6.44354-2.41633-34.0413-1.23257-38.71523,3.44135-1.41949,1.41949,4.06272.43548,6.02237,0c4.96073-1.10239,9.62598-3.39264,14.62575-4.30169c1.43871-.26158,4.30169.60196,4.30169-.86034c0-2.86779-9.8859-2.56503-8.60338,0c.83619,1.67239,42.53385.86034,18.92745.86034" transform="matrix(1.022868 0 0 0.666145-3.420688 36.742779)" fill="none" stroke="#fbb131" stroke-width="25"/></svg>
